<svg xmlns="http://www.w3.org/2000/svg" viewBox="0 0 39 37.5"><defs><style>.cls-1{fill:#e00747;}</style></defs><title>Recurso 1onboard_3</title><g id="Capa_2" data-name="Capa 2"><g id="Capa_1-2" data-name="Capa 1"><path class="cls-1" d="M33.2,19.1,19.5,6.7,5.8,19.1V36.7a.9.9,0,0,0,.8.8h8.6V29.8A.7.7,0,0,1,16,29h7a.8.8,0,0,1,.8.8v7.7h8.6a.9.9,0,0,0,.8-.8V19.1Z"/><polygon class="cls-1" points="19.4 0 0 17.5 2 19.8 19.5 4.1 36.9 19.8 39 17.5 19.6 0 19.5 0.1 19.4 0 19.4 0"/><polygon class="cls-1" points="5.8 2.5 10.7 2.5 10.7 5.5 5.8 10 5.8 2.5"/></g></g></svg>