<svg xmlns="http://www.w3.org/2000/svg" viewBox="0 0 51.66 12.8"><defs><style>.cls-1{fill:#0c2f59;}</style></defs><g id="Capa_2" data-name="Capa 2"><g id="Capa_1-2" data-name="Capa 1"><path class="cls-1" d="M47.07,0a10.71,10.71,0,0,0,.22,1.26c.8,3,1.63,5.89,2.42,8.85a1.42,1.42,0,0,0,1.18,1.18,6.45,6.45,0,0,1,.77.27v1.15H45.28V11.6l1.45-.67-.64-2.45H42.33c-.2.67-.38,1.33-.58,2a.73.73,0,0,0,.43.91,5.49,5.49,0,0,0,.78.27v1H38.39V11.64c0-.06.1-.14.15-.14a2.06,2.06,0,0,0,1.9-1.74c1-3.27,2.12-6.51,3.19-9.76ZM44.4,2.74h-.19L43,6.91a4.9,4.9,0,0,0,2.38,0Z"/><path class="cls-1" d="M8.69,0c.07.42.1.85.21,1.26.8,3,1.63,5.89,2.42,8.85a1.43,1.43,0,0,0,1.19,1.18,7.13,7.13,0,0,1,.77.27v1.15H6.89V11.6l1.46-.67L7.71,8.48H3.94l-.57,2a.72.72,0,0,0,.43.91,5,5,0,0,0,.77.27v1H0V11.64c.06-.06.1-.14.15-.14a2.06,2.06,0,0,0,1.9-1.74c1-3.27,2.12-6.51,3.2-9.76ZM6,2.74h-.2L4.63,6.91A4.9,4.9,0,0,0,7,6.9Z"/><path class="cls-1" d="M37.36,0V4.33H36.2c-.07-.17-.16-.38-.26-.58A4.39,4.39,0,0,0,32.4,1.26a3.42,3.42,0,0,0-1.56.28,1.64,1.64,0,0,0-1,1.7c0,.7.48,1,1,1.2.75.28,1.52.52,2.29.78s1.34.42,2,.67a3.31,3.31,0,0,1,2.39,3,3.74,3.74,0,0,1-2.38,3.42,6.18,6.18,0,0,1-4.81-.05c-.37-.14-.73-.31-1.15-.5l-.46.94H27.58a16.88,16.88,0,0,1,0-4.31h1.22c.07.17.17.38.26.59A4,4,0,0,0,33,11.4a2.75,2.75,0,0,0,1.37-.54c.67-.56.89-1.4,0-2a8,8,0,0,0-1.45-.67c-1.06-.42-2.15-.77-3.19-1.23a4.69,4.69,0,0,1-1.25-.89,3.05,3.05,0,0,1-.65-3.65A4.36,4.36,0,0,1,30.45.24,10,10,0,0,1,31.66.08a4,4,0,0,1,1.88.24l2.12.79L35.94,0Z"/><path class="cls-1" d="M21.37,0V1.14l-.86.25c-.61.2-.77.38-.77,1q0,4,0,8c0,.73.18.92.91,1.08A4.56,4.56,0,0,0,23.58,11a1.8,1.8,0,0,0,.85-1.51,7.49,7.49,0,0,0,0-1.07h1.13v4.19a98.45,98.45,0,0,1-10,.07l-.06-.91c.08-.07.12-.14.18-.16,1.39-.3,1.45-.37,1.45-1.78v-7c0-1.17,0-1.16-1.13-1.48a.82.82,0,0,1-.22-.12L15.7,0Z"/></g></g></svg>