<?xml version="1.0" encoding="utf-8"?>
<!-- Generator: Adobe Illustrator 23.1.0, SVG Export Plug-In . SVG Version: 6.00 Build 0)  -->
<svg version="1.1" id="Capa_1" xmlns="http://www.w3.org/2000/svg" xmlns:xlink="http://www.w3.org/1999/xlink" x="0px" y="0px"
	 viewBox="0 0 392.1 225.2" style="enable-background:new 0 0 392.1 225.2;" xml:space="preserve">
<style type="text/css">
	.st0{fill:#E00747;}
</style>
<title>Recurso 2onboard_3</title>
<g>
	<g id="Capa_1-2">
		<path class="st0" d="M216.1,128.5c0.2,5.2-2,10.1-5.9,13.5c-3.9,3.4-10,5.5-18.3,6.1v9c0,0.6-0.3,1.2-0.8,1.5
			c-0.6,0.5-1.3,0.7-2.1,0.7h-7c-0.8,0-1.7-0.2-2.4-0.6c-0.6-0.3-1-0.9-1-1.6v-9c-7.3-0.7-13.1-2.7-17.3-6c-4-3-6.3-7.7-6.3-12.7
			v-5.5c0-0.7,0.4-1.3,1-1.7c0.7-0.5,1.6-0.8,2.5-0.8h14.1c1.2,0,2.3,0.3,3.3,0.9c0.9,0.4,1.4,1.3,1.4,2.2v3.6
			c-0.1,1.2,0.1,2.3,0.6,3.4c0.5,1.1,1.3,2,2.3,2.7c1.6,0.8,3.4,1.2,5.2,1.1c1.9,0.1,3.8-0.4,5.5-1.2c1.4-0.7,2.3-2.1,2.3-3.6
			c0-1.6-0.5-3.2-1.3-4.6c-0.9-1.5-1.9-2.8-3.1-4c-1.3-1.4-2.7-2.6-4.2-3.7l-4.6-3.4c-1.7-1.2-3.3-2.5-4.8-3.7l-4.6-3.8l-5.7-4.9
			c-1.7-1.5-3.3-3.2-4.7-5c-1.4-1.6-2.5-3.4-3.3-5.3c-0.8-2-1.2-4.1-1.2-6.3c0-2.4,0.4-4.9,1.4-7.1c1-2.3,2.5-4.5,4.3-6.2
			c2.1-1.9,4.6-3.5,7.2-4.6c3.2-1.3,6.6-2.2,10-2.6v-9.7c0-0.5,0.3-1,0.8-1.2c0.6-0.4,1.2-0.6,1.9-0.6h8.4c0.6-0.1,1.2,0.2,1.7,0.6
			c0.3,0.3,0.5,0.8,0.5,1.2v9.6c7.9,0.6,13.8,2.4,17.5,5.5S215,78,215,83.4v5.7c0,0.7-0.5,1.3-1.1,1.6c-0.7,0.5-1.6,0.7-2.5,0.7
			h-14.7c-0.9,0-1.8-0.3-2.6-0.8c-0.6-0.4-1.1-1.1-1.1-1.8v-3.3c0-1.2-0.2-2.4-0.6-3.5c-0.3-1.1-1.1-2.1-2.1-2.7
			c-1.1-0.8-2.7-1.1-4.9-1.1c-1.9-0.1-3.9,0.4-5.5,1.4c-1.4,0.7-2.2,2.1-2.2,3.7c0,1.8,0.7,3.5,1.9,4.8c1.4,1.7,2.9,3.3,4.6,4.7
			c1.9,1.6,3.8,3.1,5.7,4.5l5.1,3.8c2.9,2.3,5.5,4.5,8,6.3c2.4,1.8,4.6,3.8,6.7,5.9c1.9,2,3.5,4.2,4.7,6.7
			C215.6,122.7,216.2,125.6,216.1,128.5z"/>
		<path class="st0" d="M352.8,19l20.3,0.2V201l-4.6-0.6c-25.2-4.5-55.7-6.8-90.6-6.8c-44.4,0-79.9,3.7-81.4,3.8h-1.4
			c-31.9,5.7-71.5,8.6-117.5,8.6c-23.9,0-44.5-0.8-58.6-1.5V25.6c21.4,4.9,55.7,10.6,99.5,10.6c21.5,0,43-1.4,64.3-4h1.1
			c58.7-10.7,124.3-13,168.9-13 M352.8,0.2C310.8,0,242,2.1,180.4,13.3c-20.5,2.6-41.2,3.9-61.9,3.9C66.8,17.2,29.1,9,11.4,4.1
			C10.6,3.9,9.8,3.8,9,3.8c-5,0-9,4-9,9l0,0v195.7c0,8,6.2,14.5,14.2,14.9c13.8,0.8,36.6,1.8,63.4,1.8c37,0,81.7-1.9,120.9-8.9
			c0,0,35.5-3.7,79.4-3.7c28.2,0,59.8,1.5,87.7,6.6l9.6,1.2h1.9c8.3,0,15-6.7,15-15l0,0V15.3c0-8.2-6.5-14.9-14.7-15.1L352.8,0V0.2z
			"/>
		<path class="st0" d="M339.6,53.8h-39c-5.5,0-10-4.5-10-10s4.5-10,10-10h39c5.5,0,10,4.5,10,10S345.1,53.8,339.6,53.8z"/>
		<path class="st0" d="M84,191H45.1c-5.5,0-10-4.5-10-10s4.5-10,10-10H84c5.5,0,10,4.5,10,10S89.5,191,84,191z"/>
	</g>
</g>
</svg>
