<svg xmlns="http://www.w3.org/2000/svg" viewBox="0 0 21.7 41.5"><defs><style>.cls-1{fill:#e00747;}</style></defs><title>Recurso 3onboard_3</title><g id="Capa_2" data-name="Capa 2"><g id="Capa_1-2" data-name="Capa 1"><path class="cls-1" d="M10,13.5a2.9,2.9,0,0,1-2.8,2.8V39c0,3.3-4.3,3.3-4.3,0V16.3a2.9,2.9,0,0,1-2.9-3V.8A.8.8,0,1,1,1.6.9v9.2H2.9V.8A.8.8,0,1,1,4.4.8v9.3H5.7V.8A.8.8,0,1,1,7.2.8v9.3H8.5V.8A.8.8,0,1,1,10,.8V13.5Z"/><path class="cls-1" d="M21.7,3.7V39a2.2,2.2,0,1,1-4.4,0V25H15V3.7a3.4,3.4,0,1,1,6.7,0Z"/></g></g></svg>