<?xml version="1.0" encoding="utf-8"?>
<!-- Generator: Adobe Illustrator 23.1.0, SVG Export Plug-In . SVG Version: 6.00 Build 0)  -->
<svg version="1.1" id="Capa_1" xmlns="http://www.w3.org/2000/svg" xmlns:xlink="http://www.w3.org/1999/xlink" x="0px" y="0px"
	 viewBox="0 0 273.1 390.5" style="enable-background:new 0 0 273.1 390.5;" xml:space="preserve">
<style type="text/css">
	.st0{fill:#E00747;}
</style>
<title>Recurso 1onboard_3</title>
<g>
	<g id="Capa_1-2">
		<path class="st0" d="M272.9,132.8C267.1,101.9,240.2,0,136.8,0C136.8,0,7.2,8.6,0,129.1c-0.4,6.6,4.5,37.8,7.1,43.9
			c12.8,29.7,52.7,105.1,83,161.7v55.8h96V333l82.6-170.8C271,157.1,273.9,138.2,272.9,132.8z M22.6,144.9
			c0,0-12.1-109.4,117.7-125.9c107.2,20.4,108.9,89.1,108.9,89.1s-20.3,3.9-28,34.5c-0.8,3.4-6.1,2.8-7.2-0.5
			c-3-9.7-7.7-20.4-12.8-25.5c-7.7-7.8-20.3-7.9-28.1-0.1c-0.6,0.5-1.1,1.1-1.6,1.7c-5.2,6.5-10.6,14.4-14,22.4
			c-0.7,1.8-2.7,2.7-4.5,2c-1-0.4-1.8-1.2-2.1-2.2c-4.1-11.4-10.9-22.4-17.2-26.9c-6.6-4.7-15.8-3.4-20.7,3.1
			c-5.6,7.4-10.8,15.1-15.4,23.1c-1.8,3.4-6,4.6-9.3,2.8c-1.5-0.8-2.7-2.2-3.3-3.8c-3.4-9-7.5-17.9-11.6-22
			c-7-7.1-18.5-7.2-25.6-0.1c-0.6,0.6-1.2,1.3-1.7,1.9C36.6,131.2,24.2,146.9,22.6,144.9z M50.3,211.9c0,0,17.3,1.8,45.3,3
			l16.8,110.7h-8L50.3,211.9z M132.4,325.6L118,215.5c12.1,0.3,25.5,0.3,39.9,0.1l-14.5,110L132.4,325.6z M167.9,369.3h-58.3v-28.1
			h58.3V369.3z M170.5,325.6h-7l16.8-110.7c15-0.6,30.7-1.6,46.9-3C183.9,301,170.5,325.6,170.5,325.6L170.5,325.6z M216.4,198.1
			H66.3c-44.1-8.3-41.9-32.9-41.9-32.9c24.2-0.4,28.9-37.1,35-37.1s16.9,35,32,35s25.5-35,31.6-35c6.1,0,14.2,35,31.5,35
			s23.4-35,29.4-35s16.5,35,33.3,35c19.5,0,20.4-30.3,26.8-34.2c6.4-3.9,9.1,6.9,9.1,19.4C253.1,190.5,216.4,198.1,216.4,198.1
			L216.4,198.1z"/>
	</g>
</g>
</svg>
