<svg xmlns="http://www.w3.org/2000/svg" viewBox="0 0 19.86 19.86"><defs><style>.cls-1{fill:#1c2f5f;}.cls-2{fill:#fbc00f;}</style></defs><g id="Capa_2" data-name="Capa 2"><g id="Capa_1-2" data-name="Capa 1"><path class="cls-1" d="M9.93,0a9.93,9.93,0,1,0,9.93,9.93A9.94,9.94,0,0,0,9.93,0Zm.48,6.4a.38.38,0,0,1,.44-.3.39.39,0,0,1,.3.44l-1,5.16a.36.36,0,0,1-.36.3H9.71a.38.38,0,0,1-.29-.44ZM9,10.37a.38.38,0,0,1-.37.32H8.52a.36.36,0,0,1-.31-.42L8.7,7a.37.37,0,1,1,.74.11ZM11.79,6.1a.37.37,0,1,1,.74.11l-1,6.46a.38.38,0,0,1-.37.32h-.06a.38.38,0,0,1-.31-.43ZM13.44,6a.38.38,0,0,1,.43-.32.38.38,0,0,1,.31.43L13,14.28a.38.38,0,0,1-.37.32h-.06a.38.38,0,0,1-.31-.43Zm-.71-.85a4.84,4.84,0,0,1-2.65.51,4.43,4.43,0,0,0-2.79.73,1.5,1.5,0,0,0-.54.63c-.37.81-.88,2.8,1.83,4.61,4.25,3,4.74,5.87,4.74,5.87a21.88,21.88,0,0,0-4.45-4.16C5.6,11.56,5.26,10.81,4.81,9.8a3,3,0,0,1,.68-2.72,1,1,0,0,1-.43.09A1.09,1.09,0,1,1,6.15,6.08a.5.5,0,0,1,0,.13l.06-.08c1.57-3.28,4.75-1.81,6.21-1.81A4.15,4.15,0,0,0,15,3.2,5.13,5.13,0,0,1,12.73,5.18Z"/><path class="cls-2" d="M6.18,6.13l-.06.08a.5.5,0,0,0,0-.13A1.1,1.1,0,1,0,5.06,7.17a1,1,0,0,0,.43-.09A3,3,0,0,0,4.81,9.8c.45,1,.79,1.76,4.06,3.57a21.88,21.88,0,0,1,4.45,4.16s-.49-2.89-4.74-5.87c-2.71-1.81-2.2-3.8-1.83-4.61a1.5,1.5,0,0,1,.54-.63,4.43,4.43,0,0,1,2.79-.73,4.84,4.84,0,0,0,2.65-.51A5.13,5.13,0,0,0,15,3.2a4.15,4.15,0,0,1-2.6,1.12C10.93,4.32,7.75,2.85,6.18,6.13Z"/><path class="cls-2" d="M12.53,14.6h.06a.38.38,0,0,0,.37-.32l1.22-8.14a.38.38,0,0,0-.31-.43.38.38,0,0,0-.43.32l-1.22,8.14A.38.38,0,0,0,12.53,14.6Z"/><path class="cls-2" d="M11.13,13h.06a.38.38,0,0,0,.37-.32l1-6.46a.37.37,0,1,0-.74-.11l-1,6.46A.38.38,0,0,0,11.13,13Z"/><path class="cls-2" d="M9.71,12h.08a.36.36,0,0,0,.36-.3l1-5.16a.39.39,0,0,0-.3-.44.38.38,0,0,0-.44.3l-1,5.16A.38.38,0,0,0,9.71,12Z"/><path class="cls-2" d="M9.13,6.63A.38.38,0,0,0,8.7,7l-.49,3.31a.36.36,0,0,0,.31.42h.06A.38.38,0,0,0,9,10.37l.49-3.31A.38.38,0,0,0,9.13,6.63Z"/></g></g></svg>