<?xml version="1.0" encoding="utf-8"?>
<!-- Generator: Adobe Illustrator 23.1.0, SVG Export Plug-In . SVG Version: 6.00 Build 0)  -->
<svg version="1.1" id="Capa_1" xmlns="http://www.w3.org/2000/svg" xmlns:xlink="http://www.w3.org/1999/xlink" x="0px" y="0px"
	 viewBox="0 0 360.4 352.7" style="enable-background:new 0 0 360.4 352.7;" xml:space="preserve">
<style type="text/css">
	.st0{fill:#E00747;}
</style>
<title>Recurso 3onboard_3</title>
<g>
	<g id="Capa_1-2">
		<path class="st0" d="M184.5,352.7h-3.2c-21.1-1.4-29-14.8-35.3-25.6c-4.5-8-8.4-14.8-17.2-18c-8.8-3.2-19.3-1.8-29.6,0
			c-13.1,2.3-27.9,4.8-42.5-4.7c-18.9-12.2-14-35.6-10.6-52.5c1.5-7.4,3.2-15.7,2-19c-1.2-3.3-9.2-8.8-15.7-13.1
			c-15.1-10.3-33.9-23.1-32.3-43.9c1.4-18.6,14.6-27.2,26.3-34.9c8.4-5.4,16.3-10.6,19.2-18.7s1.2-17-0.6-26.7
			c-2.9-14.9-6-32,7.2-48.1s33.6-11,49.5-6.5c10.4,3,20.1,5.9,25.3,2.3l0,0c5.7-3.9,9.1-10.4,12.5-17.2c5.7-11.8,13-26.1,34.6-26.1
			c17.7,0,29.1,13.4,39.1,25.2c6.6,7.7,12.8,14.9,19.3,16.9s13.4-0.5,21.6-2.6c15.4-4.1,34.6-9.1,50.7,8.1
			c16.1,17.2,11.3,36.4,8,52.4c-2,9.4-3.8,18.1-1.7,24.3c2.1,6.2,10.6,10.3,19.5,14.6c13.6,6.8,30.5,15.1,29.9,35.3
			c-0.6,20.2-15.1,28.5-28.1,37c-9.7,6.3-18.7,12.4-22,21.1s-0.3,15.8,2.9,24.7c4.5,12.5,10,28.2-5.4,43.5
			c-15.4,15.2-33.9,10.4-49.5,6.8c-8.8-2-17.8-4.2-21.3-1.2s-7.2,9.2-10.7,15.2C218.4,334.6,208,352.7,184.5,352.7z M116.3,290.4
			c6.2-0.2,12.4,0.9,18.1,3c14.5,5.1,20.8,16.3,26.1,25.2c5.3,8.9,10.1,16.6,21.9,17.4c14.8,0.9,20.8-8.1,29.4-22.9
			c4.1-6.9,8.3-14.2,14.2-19.5c10-8.4,23.2-5.4,36.1-2.4c15.5,3.6,26.3,5.4,34.1-2.4s5.7-13.7,1.5-26.1c-3.6-10-7.8-22.3-2.9-36.1
			s17.5-22,28.4-29.3c10.9-7.2,20.5-13.9,20.7-23.5c0.2-9.7-6.5-12.8-20.7-19.9c-11-5.4-23.4-11.6-27.8-24.1
			c-4.4-12.5-1.2-22,1.1-33.2c3.6-17,5.1-28.1-3.8-37.6c-8.9-9.5-18.9-7.4-34.4-3.5c-10,2.7-20.4,5.4-30.5,2.6
			c-10.1-2.9-19.3-13-27.3-22.2c-8-9.2-16.3-19.3-26.4-19.3c-10.1,0-14,5.4-19.8,16.7c-4.1,8-8.6,17-18,23.5l0,0
			c-11.8,8.1-26.4,3.8-39.2,0c-15.7-4.5-25.5-6.9-32.1,1.1c-6.6,8-6.6,19.5-3.8,34.6c2,10.9,4.4,23.2,0,35.5s-16,20.5-25.8,27
			c-9.8,6.5-18.1,12.2-18.9,22c-0.8,9.8,13,20.7,25,29c12.1,8.3,19.3,13,22.2,21.4c2.9,8.4,0.8,17.4-1.4,27.8
			c-3.6,17-5.4,29.6,3.3,35.3s18.7,4.2,30.6,2.1C103,291.3,109.6,290.6,116.3,290.4z"/>
		<path class="st0" d="M180.2,225c-26.9,0-48.6-21.7-48.6-48.6s21.7-48.6,48.6-48.6c26.9,0,48.6,21.7,48.6,48.6S207.1,225,180.2,225
			L180.2,225z M180.2,147.4c-16,0-29,13-29,29s13,29,29,29s29-13,29-29S196.2,147.4,180.2,147.4L180.2,147.4z"/>
	</g>
</g>
</svg>
