<svg xmlns="http://www.w3.org/2000/svg" viewBox="0 0 51.07 19.66"><defs><style>.cls-1{fill:#700056;}</style></defs><g id="Capa_2" data-name="Capa 2"><g id="Capa_1-2" data-name="Capa 1"><path class="cls-1" d="M5.82,5.85a7,7,0,0,0-4,1A2.24,2.24,0,0,0,.83,8.38L0,13.77H3.23S3.72,10,4.11,8.3A1.69,1.69,0,0,1,5.77,6.88H9.44l.54-1Z"/><path class="cls-1" d="M16.05,5.85c-6.73-.07-6.38,4-6.48,5.87S11,14,14.61,14s3.87-1.29,3.87-1.29a14.44,14.44,0,0,1-3.32.4c-3.09,0-2.91-2.38-2.91-2.38s.48.05,1.95.13C19.34,11.14,20,9.62,20.1,8,20,6.3,19,6,16.05,5.85Zm-3.52,4.2s.18-3.52,3.22-3.47c1.21.13,1.79.51,1.79,1.4S17.06,10.41,12.53,10.05Z"/><path class="cls-1" d="M45.17,10.89c5.14.25,5.78-1.27,5.9-2.94-.15-1.65-1.14-2-4-2.1-6.73-.07-6.38,4-6.48,5.87S42,14,45.58,14s3.87-1.29,3.87-1.29a14.44,14.44,0,0,1-3.32.4c-3.09,0-2.91-2.38-2.91-2.38S43.7,10.81,45.17,10.89Zm1.55-4.31c1.21.13,1.79.51,1.79,1.4s-.48,2.43-5,2.07C43.5,10.05,43.68,6.53,46.72,6.58Z"/><path class="cls-1" d="M31.44,13.77l1-5.62s.31-1.82-2-2.3H22.51l-1.6,7.82v.1h3.27L25.32,7h3s1.06.26,1,1-.86,5.85-.86,5.85Z"/><path class="cls-1" d="M38.53,5.85c.41-5.34,3-5.07,3-5.07L42.1,0c-7.54,0-6.53,6.84-8.22,15.27-.74,4.17-2.64,3.67-2.64,3.67a7.37,7.37,0,0,1-.66.68C37.6,20.33,37.72,11,38,9S38.84,7,39.9,6.91a2.68,2.68,0,0,0,.79-1.06Z"/></g></g></svg>