<?xml version="1.0" encoding="utf-8"?>
<!-- Generator: Adobe Illustrator 23.1.0, SVG Export Plug-In . SVG Version: 6.00 Build 0)  -->
<svg version="1.1" id="Capa_1" xmlns="http://www.w3.org/2000/svg" xmlns:xlink="http://www.w3.org/1999/xlink" x="0px" y="0px"
	 viewBox="0 0 53.8 53.8" style="enable-background:new 0 0 53.8 53.8;" xml:space="preserve">
<style type="text/css">
	.st0{fill:#FFFFFF;}
	.st1{fill:#E2204D;}
</style>
<title>Recurso 1onboard_3</title>
<g>
	<g id="Capa_1-2">
		<path class="st0" d="M26.9,0h-2.6l-2.7,0.5l-2.5,0.7L16.6,2l-2.4,1.2L12,4.5L9.8,6.1L7.9,7.9L6.1,9.8C5.5,10.5,5,11.2,4.5,12
			c-0.5,0.7-0.9,1.4-1.3,2.2L2,16.6c-0.3,0.8-0.6,1.6-0.8,2.5c-0.3,0.8-0.5,1.7-0.7,2.5c-0.2,0.9-0.3,1.8-0.4,2.7
			C0,25.2,0,26,0,26.9c0,0.9,0,1.7,0.1,2.6c0.1,0.9,0.2,1.7,0.4,2.6c0.2,0.9,0.4,1.8,0.7,2.6c0.2,0.8,0.5,1.7,0.8,2.5l1.2,2.4
			c0.4,0.8,0.8,1.5,1.3,2.2c0.5,0.8,1,1.5,1.6,2.2l1.8,1.9l1.9,1.8l2.2,1.6l2.2,1.3l2.4,1.1c0.8,0.4,1.6,0.7,2.5,0.9l2.5,0.7
			l2.7,0.4h5.2l2.6-0.4l2.6-0.7c0.9-0.2,1.7-0.5,2.5-0.9l2.4-1.1l2.2-1.3l2.2-1.6l1.9-1.8l1.8-1.9c0.5-0.7,1.1-1.4,1.6-2.2l1.3-2.2
			c0.4-0.8,0.8-1.6,1.1-2.4c0.4-0.8,0.7-1.6,0.9-2.5c0.3-0.8,0.5-1.7,0.7-2.6c0.1-0.8,0.3-1.7,0.4-2.6s0.1-1.7,0.1-2.6
			s-0.1-1.8-0.1-2.6s-0.3-1.8-0.4-2.7c-0.2-0.8-0.4-1.7-0.7-2.5c-0.2-0.9-0.5-1.7-0.9-2.5c-0.3-0.8-0.7-1.6-1.1-2.4
			c-0.4-0.8-0.9-1.5-1.3-2.2s-1.1-1.5-1.6-2.2l-1.8-1.9L44,6.1l-2.2-1.6l-2.2-1.3L37.2,2l-2.5-0.8l-2.6-0.7l-2.6-0.4L26.9,0z"/>
		<path class="st1" d="M18.4,32.2l-1,1.1c-1.5,1.5-2.1,5.2-2.1,5.2s3.5-0.4,5.2-2.1l1.1-1L18.4,32.2z M32,19.7
			c1.2,0,2.1,0.9,2.1,2.1s-0.9,2.1-2.1,2.1c-1.1-0.1-2-1-2.1-2.1C29.9,20.6,30.8,19.7,32,19.7z M37.4,13.4c-4.5,0-10.5,3.1-14.6,8.4
			h-3.3c-2.5,0-3.8,1.8-4.8,3.7L13.4,28h6.1l3.1,3.2l3.1,3.1v6.1l2.6-1.3c1.9-1,3.7-2.4,3.7-4.8V31c5.3-4.1,8.4-10.1,8.4-14.6v-3
			L37.4,13.4z"/>
	</g>
</g>
</svg>
