<svg xmlns="http://www.w3.org/2000/svg" viewBox="0 0 53.8 53.8"><defs><style>.cls-1{fill:#e2204d;}.cls-2{fill:#fff;}</style></defs><title>Recurso 1onboard_3</title><g id="Capa_2" data-name="Capa 2"><g id="Capa_1-2" data-name="Capa 1"><path class="cls-1" d="M26.9,0H24.3L21.6.5l-2.5.7L16.6,2,14.2,3.2,12,4.5,9.8,6.1,7.9,7.9,6.1,9.8A17.7,17.7,0,0,0,4.5,12a15.9,15.9,0,0,0-1.3,2.2L2,16.6a18.3,18.3,0,0,0-.8,2.5,23.3,23.3,0,0,0-.7,2.5,25.1,25.1,0,0,0-.4,2.7A21.7,21.7,0,0,0,0,26.9a21.7,21.7,0,0,0,.1,2.6,20.2,20.2,0,0,0,.4,2.6,19.7,19.7,0,0,0,.7,2.6A24.1,24.1,0,0,0,2,37.2l1.2,2.4a25.3,25.3,0,0,0,1.3,2.2A17.7,17.7,0,0,0,6.1,44l1.8,1.9,1.9,1.8L12,49.3l2.2,1.3,2.4,1.1a10.6,10.6,0,0,0,2.5.9l2.5.7,2.7.4h5.2l2.6-.4,2.6-.7a12.5,12.5,0,0,0,2.5-.9l2.4-1.1,2.2-1.3L44,47.7l1.9-1.8L47.7,44c.5-.7,1.1-1.4,1.6-2.2l1.3-2.2a25.6,25.6,0,0,0,1.1-2.4,12.5,12.5,0,0,0,.9-2.5,19.7,19.7,0,0,0,.7-2.6c.1-.8.3-1.7.4-2.6s.1-1.7.1-2.6-.1-1.8-.1-2.6-.3-1.8-.4-2.7a23.3,23.3,0,0,0-.7-2.5,10.6,10.6,0,0,0-.9-2.5,25.6,25.6,0,0,0-1.1-2.4c-.4-.8-.9-1.5-1.3-2.2s-1.1-1.5-1.6-2.2L45.9,7.9,44,6.1,41.8,4.5,39.6,3.2,37.2,2l-2.5-.8L32.1.5,29.5.1Z"/><path class="cls-2" d="M18.4,32.2l-1,1.1c-1.5,1.5-2.1,5.2-2.1,5.2s3.5-.4,5.2-2.1l1.1-1ZM32,19.7a2.1,2.1,0,0,1,2.1,2.1A2.1,2.1,0,0,1,32,23.9a2.2,2.2,0,0,1-2.1-2.1A2.1,2.1,0,0,1,32,19.7Zm5.4-6.3c-4.5,0-10.5,3.1-14.6,8.4H19.5c-2.5,0-3.8,1.8-4.8,3.7L13.4,28h6.1l3.1,3.2,3.1,3.1v6.1l2.6-1.3c1.9-1,3.7-2.4,3.7-4.8V31c5.3-4.1,8.4-10.1,8.4-14.6v-3Z"/></g></g></svg>